<svg width="1200" height="800" viewBox="0 0 1200 800" fill="none" xmlns="http://www.w3.org/2000/svg">
  <defs>
    <linearGradient id="sky" x1="0" y1="0" x2="1" y2="1">
      <stop offset="0%" stop-color="#0B3D4A"/>
      <stop offset="55%" stop-color="#1A6B7A"/>
      <stop offset="100%" stop-color="#2BB3C0"/>
    </linearGradient>
    <linearGradient id="water" x1="0" y1="0" x2="0" y2="1">
      <stop offset="0%" stop-color="#147A8A" stop-opacity="0"/>
      <stop offset="40%" stop-color="#0E5A68" stop-opacity="0.55"/>
      <stop offset="100%" stop-color="#083842"/>
    </linearGradient>
  </defs>
  <rect width="1200" height="800" fill="url(#sky)"/>
  <circle cx="980" cy="140" r="180" fill="#F2D9A0" opacity="0.35"/>
  <circle cx="180" cy="620" r="220" fill="#0A2F38" opacity="0.35"/>
  <path d="M0 430 C180 390 320 470 500 450 C700 426 820 360 1000 390 C1100 406 1160 440 1200 460 L1200 800 L0 800 Z" fill="url(#water)"/>
  <path d="M160 520 C280 480 420 500 560 470 C700 440 820 400 980 430" stroke="#E8F7F9" stroke-width="4" stroke-linecap="round" opacity="0.55"/>
  <path d="M220 560 C340 530 470 545 610 520 C760 492 880 460 1040 485" stroke="#9DE4EC" stroke-width="3" stroke-linecap="round" opacity="0.4"/>
  <rect x="470" y="300" width="260" height="28" rx="14" fill="#F5F0E8" opacity="0.92"/>
  <rect x="520" y="250" width="160" height="70" rx="16" fill="#D8C7A3" opacity="0.95"/>
  <circle cx="600" cy="285" r="10" fill="#0B3D4A"/>
  <text x="72" y="92" fill="#E8F7F9" font-family="Arial, sans-serif" font-size="28" font-weight="700" letter-spacing="4">CONSISTENCY</text>
</svg>
